
<svg width="208" height="510" viewBox="0 0 208 510" fill="none" xmlns="http://www.w3.org/2000/svg">
  <path
    d="M104.036 268.677C106.426 268.838 109.625 306.323 110.901 317.32C112.176 328.317 115.375 349.054 117.927 356.547C120.478 364.04 120.64 367.868 119.993 372.971C119.364 378.074 118.717 399.44 122.06 411.569C125.402 423.699 121.898 435.972 120.946 440.752C119.993 445.532 118.232 453.672 118.394 469.467C118.556 485.262 127.091 492.521 135.698 490.599C144.306 488.676 144.234 477.122 142.958 471.857C141.682 466.592 139.292 459.727 139.616 454.786C139.939 449.844 136.902 446.017 136.579 442.028C136.255 438.038 136.417 432.612 144.234 408.694C152.051 384.777 146.3 364.364 145.025 356.385C143.749 348.407 145.671 324.975 148.367 294.337C151.08 263.717 142.311 238.362 139.274 209.971C136.238 181.579 148.852 158.291 148.852 158.291C148.852 158.291 152.051 168.731 154.441 175.362C156.83 181.974 157.387 196.655 158.591 204.382C159.795 212.109 171.422 238.201 173.183 243.466C174.944 248.731 170.865 257.015 170.865 257.015C170.865 257.015 170.307 258.847 170.307 260.519C170.307 262.19 169.589 270.33 170.074 278.38C170.559 286.43 175.015 281.004 175.411 279.333C175.806 277.661 175.411 273.672 175.411 273.277C175.411 272.882 175.339 271.21 176.201 269.378C177.082 267.545 179.544 270.725 179.795 272.72C180.029 274.714 178.681 278.38 178.681 278.38C178.681 278.38 175.483 281.489 175.015 281.884C174.53 282.28 172.464 283.394 170.146 283.879C167.828 284.364 167.109 287.634 167.756 288.353C168.403 289.072 175.177 287.958 175.177 287.958C175.177 287.958 177.891 287.886 183.227 282.693C188.564 277.518 188.978 272.414 188.816 267.706C188.654 262.998 185.869 253.187 185.222 236.529C184.593 219.872 181.233 182.46 176.291 170.097C171.35 157.734 170.631 133.421 167.918 114.284C165.204 95.1462 149.733 94.9845 143.443 93.2235C137.136 91.4625 118.088 78.5425 117.765 75.8471C117.442 73.1337 119.921 71.1391 121.664 68.1203C123.425 65.0834 122.221 58.9559 122.221 58.9559C127.882 56.7277 127.325 51.229 127.163 49.468C127.001 47.707 125.564 47.5633 125.564 47.5633C125.564 47.5633 125.402 46.9164 125.079 45.964C124.755 45.0116 125.079 41.1841 125.079 38.3809C125.079 23.6999 111.368 18.92 104.018 18.92C96.6689 18.92 82.9583 23.6999 82.9583 38.3809C82.9583 41.1662 83.2817 44.9936 82.9583 45.964C82.6348 46.9164 82.4731 47.5633 82.4731 47.5633C82.4731 47.5633 81.0355 47.725 80.8738 49.468C80.7121 51.229 80.155 56.7277 85.8154 58.9559C85.8154 58.9559 84.6114 65.1014 86.3724 68.1203C88.1334 71.1571 90.5952 73.1517 90.2718 75.8471C89.9483 78.5605 70.9008 91.4805 64.5935 93.2235C58.2863 94.9845 42.8146 95.1462 40.1192 114.284C37.4058 133.421 36.687 157.752 31.7455 170.097C26.8039 182.46 23.4436 219.854 22.8147 236.529C22.1857 253.187 19.3825 262.998 19.2208 267.706C19.0591 272.414 19.4544 277.518 24.8093 282.693C30.1462 287.868 32.8596 287.958 32.8596 287.958C32.8596 287.958 39.634 289.072 40.2809 288.353C40.9099 287.634 40.209 284.364 37.891 283.879C35.5729 283.394 33.5065 282.28 33.0213 281.884C32.5361 281.489 29.3555 278.38 29.3555 278.38C29.3555 278.38 28.0078 274.714 28.2414 272.72C28.475 270.725 30.9548 267.545 31.8353 269.378C32.7158 271.21 32.626 272.882 32.626 273.277C32.626 273.672 32.2306 277.661 32.626 279.333C33.0213 281.004 37.4957 286.43 37.9629 278.38C38.448 270.33 37.7293 262.19 37.7293 260.519C37.7293 258.847 37.1722 257.015 37.1722 257.015C37.1722 257.015 33.1111 248.713 34.8542 243.466C36.5972 238.219 48.2593 212.127 49.4453 204.382C50.6313 196.637 51.2063 181.974 53.5963 175.362C55.9862 168.749 59.1847 158.291 59.1847 158.291C59.1847 158.291 71.7813 181.579 68.7624 209.971C65.7256 238.362 56.9565 263.717 59.6699 294.337C62.3833 324.957 64.288 348.407 63.0122 356.385C61.7364 364.364 55.9862 384.777 63.8029 408.694C71.6196 432.612 71.7813 438.038 71.4578 442.028C71.1344 446.017 68.1155 449.844 68.421 454.786C68.7445 459.727 66.3545 466.592 65.0787 471.857C63.8029 477.122 63.731 488.676 72.3383 490.599C80.9457 492.521 89.4811 485.262 89.6429 469.467C89.8046 453.672 88.0436 445.55 87.0912 440.752C86.1388 435.972 82.6168 423.681 85.9771 411.569C89.3374 399.458 88.6905 378.074 88.0436 372.971C87.4147 367.868 87.5584 364.04 90.1101 356.547C92.6617 349.054 95.8603 328.317 97.1361 317.32C98.4119 306.323 101.61 268.838 104 268.677H104.036Z"
    stroke="#87DA21"
    stroke-width="1"
  />
</svg>
