<svg width="45" height="45" viewBox="0 0 45 45" fill="none" xmlns="http://www.w3.org/2000/svg">
    <path fill-rule="evenodd" clip-rule="evenodd" d="M12.5 0C11.1 0 9.5 0.2 8 1.5C7.8 1.6 7.7 1.8 7.7 2L7.8 9H7.8C7.8 9 7.8 9 7.8 9.1C7.8 9.1 7.8 9.2 7.8 9.2C7.9 9.4 8 9.6 8.1 9.8C8.7 13.8 7.8 18.5 7.1 20.5C6.9 21 6.8 21.5 6.8 22L6.8 25.5H6.6C6.1 25.5 5.7 25.9 5.7 26.4V33.5C5.7 35 6.5 36.2 7.5 36.5L7.5 38.5C7.5 39.5 8.2 40.2 9 40.2H33C33.8 40.2 34.5 39.5 34.5 38.5L34.5 36.5C35.5 36.2 36.3 35 36.3 33.5V26.4C36.3 25.9 35.9 25.5 35.4 25.5H35.2L35.2 22C35.2 21.5 35.1 21 34.9 20.5C34.2 18.5 33.3 13.8 33.9 9.8C34 9.6 34.1 9.4 34.2 9.2L34.2 9.2C34.2 9.1 34.2 9.1 34.2 9L34.3 2C34.3 1.8 34.2 1.6 34 1.5C32.5 0.2 30.9 0 29.5 0C29.2 0 28.9 0.1 28.7 0.3L28.7 0.3C27.8 2.1 26.6 3.2 25.2 3.8C23.8 4.4 22.2 4.5 20.5 4.5C18.8 4.5 17.2 4.4 15.8 3.8C14.4 3.2 13.2 2.1 12.3 0.3L12.3 0.3H12.3C12.1 0.1 11.8 0 11.5 0C11.3 0 11.1 0 10.9 0L12.5 0ZM12.6 1.2L13.8 6.2L10.2 7.2L10.1 2.2C11.2 1.4 12.1 1.2 12.6 1.2ZM29.4 1.2C29.9 1.2 30.8 1.4 31.9 2.2L31.8 7.2L28.2 6.2L29.4 1.2ZM28.1 3.2L27.7 5.8C27.6 6 27.6 6.2 27.6 6.4C26.2 9.8 24.4 10.8 20.5 10.8C16.6 10.8 14.8 9.8 13.4 6.4C13.4 6.2 13.4 6 13.3 5.8L13.3 5.8C13.3 5.7 13.3 5.7 13.3 5.7L12.9 3.2C13.5 3.5 14.1 3.7 14.7 3.9C16.1 4.3 17.6 4.4 20.5 4.4H20.5C23.4 4.4 24.9 4.3 26.3 3.9C26.9 3.7 27.5 3.5 28.1 3.2ZM13.5 6.5C13.5 7.8 12.4 8.9 11.1 8.9C10.2 8.9 9.4 8.4 8.9 7.7L13.5 6.5ZM27.5 6.5L32.1 7.7C31.6 8.4 30.8 8.9 29.9 8.9C28.6 8.9 27.5 7.8 27.5 6.5ZM14.2 8.2C15.8 10.8 17.8 11.8 20.5 11.8C23.2 11.8 25.2 10.8 26.8 8.2C27.3 9.1 28.2 9.7 29.2 9.7C29.7 9.7 30.2 9.5 30.6 9.2C30.4 12.8 31.2 16.4 32 18.2C32.1 18.4 32.2 19 32.2 19.2L32.2 22.5H31.8C31.3 22.5 30.9 22.9 30.9 23.4V33.5C30.9 35 31.5 36 32.3 36.2L32.3 37.8C32.3 38.2 32 38.5 31.6 38.5H20.5H9.4C9 38.5 8.7 38.2 8.7 37.8L8.7 36.2C9.5 36 10.1 35 10.1 33.5V23.4C10.1 22.9 9.7 22.5 9.2 22.5H8.8L8.8 19.2C8.8 19 8.9 18.4 9 18.2C9.8 16.4 10.6 12.8 10.4 9.2C10.8 9.5 11.3 9.7 11.8 9.7C12.8 9.7 13.7 9.1 14.2 8.2ZM13.5 13.2C12.5 13.2 11.7 13.9 11.7 14.8V16.2C11.7 17.1 12.5 17.8 13.5 17.8H27.5C28.5 17.8 29.3 17.1 29.3 16.2V14.8C29.3 13.9 28.5 13.2 27.5 13.2H13.5ZM13.5 14.6H27.5C27.8 14.6 28 14.8 28 14.8V16.2C28 16.5 27.8 16.7 27.5 16.7H13.5C13.2 16.7 13 16.5 13 16.2V14.8C13 14.8 13.2 14.6 13.5 14.6ZM12.2 20.2C11.2 20.2 10.4 20.9 10.4 21.8C10.4 22.7 11.2 23.4 12.2 23.4H28.8C29.8 23.4 30.6 22.7 30.6 21.8C30.6 20.9 29.8 20.2 28.8 20.2H12.2ZM12.2 21.6H28.8C29.1 21.6 29.3 21.8 29.3 21.8C29.3 22.1 29.1 22.3 28.8 22.3H12.2C11.9 22.3 11.7 22.1 11.7 21.8C11.7 21.8 11.9 21.6 12.2 21.6ZM8.6 23.4H9.2C9.4 23.4 9.5 23.5 9.5 23.6V33.5C9.5 34.2 9 34.7 8.4 34.7C7.8 34.7 7.3 34.2 7.3 33.5V23.6C7.3 23.5 7.5 23.4 7.7 23.4L8.6 23.4ZM31.4 23.4H32C32.2 23.4 32.3 23.5 32.3 23.6V33.5C32.3 34.2 31.8 34.7 31.2 34.7C30.6 34.7 30.1 34.2 30.1 33.5V23.6C30.1 23.5 30.3 23.4 30.5 23.4L31.4 23.4ZM12.2 25.8C11.2 25.8 10.4 26.5 10.4 27.4C10.4 28.3 11.2 29 12.2 29H28.8C29.8 29 30.6 28.3 30.6 27.4C30.6 26.5 29.8 25.8 28.8 25.8H12.2ZM12.2 27.2H28.8C29.1 27.2 29.3 27.4 29.3 27.4C29.3 27.7 29.1 27.9 28.8 27.9H12.2C11.9 27.9 11.7 27.7 11.7 27.4C11.7 27.4 11.9 27.2 12.2 27.2ZM12.2 30.6C11.2 30.6 10.4 31.3 10.4 32.2C10.4 33.1 11.2 33.5 12.2 33.5H28.8C29.8 33.5 30.6 33.1 30.6 32.2C30.6 31.3 29.8 30.6 28.8 30.6H12.2ZM12.2 32H28.8C29.1 32 29.3 32.2 29.3 32.2C29.3 32.5 29.1 32.4 28.8 32.4H12.2C11.9 32.4 11.7 32.2 11.7 32.2C11.7 32 11.9 32 12.2 32Z" fill="white" fill-opacity="0.45"/>
</svg>
